HIERARCHY
ROOT root
{
	OFFSET 0.000000 0.000000 0.000000
	CHANNELS 6 Xposition Yposition Zposition Zrotation Yrotation Xrotation
	JOINT lhip
	{
		OFFSET 0.058581 -0.082280 -0.017664
		CHANNELS 3 Zrotation Yrotation Xrotation
		JOINT lknee
		{
			OFFSET 0.043451 -0.386469 0.008037
			CHANNELS 3 Zrotation Yrotation Xrotation
			JOINT lankle
			{
				OFFSET -0.014790 -0.426874 -0.037428
				CHANNELS 3 Zrotation Yrotation Xrotation
				JOINT ltoe
				{
					OFFSET 0.041054 -0.060286 0.122042
					CHANNELS 3 Zrotation Yrotation Xrotation
					End Site
					{
						OFFSET 0.000000 0.000000 0.000000
					}
				}
			}
		}
	}
	JOINT rhip
	{
		OFFSET -0.060310 -0.090513 -0.013543
		CHANNELS 3 Zrotation Yrotation Xrotation
		JOINT rknee
		{
			OFFSET -0.043257 -0.383688 -0.004843
			CHANNELS 3 Zrotation Yrotation Xrotation
			JOINT rankle
			{
				OFFSET 0.019056 -0.420046 -0.034562
				CHANNELS 3 Zrotation Yrotation Xrotation
				JOINT rtoe
				{
					OFFSET -0.034840 -0.062106 0.130323
					CHANNELS 3 Zrotation Yrotation Xrotation
					End Site
					{
						OFFSET 0.000000 0.000000 0.000000
					}
				}
			}
		}
	}
	JOINT lowerback
	{
		OFFSET 0.004439 0.124404 -0.038385
		CHANNELS 3 Zrotation Yrotation Xrotation
		JOINT upperback
		{
			OFFSET 0.004488 0.137956 0.026820
			CHANNELS 3 Zrotation Yrotation Xrotation
			JOINT chest
			{
				OFFSET -0.002265 0.056032 0.002855
				CHANNELS 3 Zrotation Yrotation Xrotation
				JOINT lowerneck
				{
					OFFSET -0.013390 0.211636 -0.033468
					CHANNELS 3 Zrotation Yrotation Xrotation
					JOINT upperneck
					{
						OFFSET 0.010113 0.088937 0.050410
						CHANNELS 3 Zrotation Yrotation Xrotation
						End Site
						{
							OFFSET 0.000000 0.000000 0.000000
						}
					}
				}
				JOINT lclavicle
				{
					OFFSET 0.071702 0.114000 -0.018898
					CHANNELS 3 Zrotation Yrotation Xrotation
					JOINT lshoulder
					{
						OFFSET 0.122921 0.045205 -0.019046
						CHANNELS 3 Zrotation Yrotation Xrotation
						JOINT lelbow
						{
							OFFSET 0.255332 -0.015649 -0.022946
							CHANNELS 3 Zrotation Yrotation Xrotation
							JOINT lwrist
							{
								OFFSET 0.265709 0.012698 -0.007375
								CHANNELS 3 Zrotation Yrotation Xrotation
								End Site
								{
									OFFSET 0.000000 0.000000 0.000000
								}
							}
						}
					}
				}
				JOINT rclavicle
				{
					OFFSET -0.082954 0.112472 -0.023707
					CHANNELS 3 Zrotation Yrotation Xrotation
					JOINT rshoulder
					{
						OFFSET -0.113228 0.046853 -0.008472
						CHANNELS 3 Zrotation Yrotation Xrotation
						JOINT relbow
						{
							OFFSET -0.260127 -0.014369 -0.031269
							CHANNELS 3 Zrotation Yrotation Xrotation
							JOINT rwrist
							{
								OFFSET -0.269108 0.006794 -0.006027
								CHANNELS 3 Zrotation Yrotation Xrotation
								End Site
								{
									OFFSET 0.000000 0.000000 0.000000
								}
							}
						}
					}
				}
			}
		}
	}
}
MOTION
Frames: 10
Frame Time: 0.033333
-0.277467 0.261677 0.997390 87.677114 -0.332178 88.342676 1.588908 2.218656 4.783313 -2.896227 -4.746647 1.446595 0.786493 10.587452 -8.533997 0.000000 -0.000000 0.000000 -6.115354 -3.493251 -1.080759 0.881192 -1.663947 10.723953 5.471038 -5.658914 -6.912843 0.000000 -0.000000 0.000000 -1.852231 0.737759 -1.344185 1.241067 -3.445590 5.046187 -0.480706 0.066113 -4.003626 1.299991 4.850405 2.674806 1.850538 3.715773 10.484143 -26.331273 3.696407 -1.419437 -56.305319 -5.359616 15.316251 2.234395 -20.538131 5.258692 -3.603183 -9.831914 1.474691 28.452093 0.522258 0.398511 55.969565 6.212653 15.440531 -6.277153 17.420188 0.796668 6.148666 7.523318 4.021260 
-0.277577 0.261580 0.997405 87.551018 -0.347716 88.488886 1.520370 2.113475 4.686018 -2.864374 -4.856291 1.317905 0.788213 10.754163 -8.478766 0.000000 -0.000000 0.000000 -5.802535 -3.182317 -1.161814 0.384753 -1.157968 10.474417 5.620995 -6.171603 -6.829025 0.000000 -0.000000 0.000000 -1.751285 0.642239 -1.581559 1.151397 -3.304008 5.076832 -0.572760 0.144024 -3.899933 1.327954 4.776270 2.353760 1.981776 3.815012 10.999275 -26.232173 3.721492 -1.318002 -56.367504 -5.267006 15.864973 2.149448 -19.977141 6.990581 -3.821513 -10.566038 2.706039 28.462171 0.458255 0.500121 56.068678 6.357622 15.555139 -6.309419 17.345230 0.914186 5.954800 7.594404 3.999774 
-0.277645 0.261538 0.997451 87.570151 -0.350238 88.507808 1.518191 2.038932 4.639579 -2.888580 -4.887436 1.346711 0.814729 10.880503 -8.402833 0.000000 -0.000000 0.000000 -5.796416 -3.142440 -1.200180 0.418604 -1.089801 10.484408 5.584115 -6.331273 -6.761817 0.000000 -0.000000 0.000000 -1.687823 0.597363 -1.613715 1.085804 -3.252837 5.003426 -0.643320 0.098920 -3.782775 1.464421 4.949426 1.724460 2.216013 3.836966 12.093663 -26.274472 3.770259 -1.192091 -56.263279 -5.416482 16.026466 2.055581 -19.509976 8.091494 -4.012396 -10.734464 3.167116 28.654379 0.330384 0.723365 55.944065 6.633806 15.619317 -6.268597 17.264846 1.084202 5.893854 7.612171 3.769992 
-0.277701 0.261567 0.997439 87.599489 -0.351201 88.504753 1.510633 2.109131 4.625738 -2.898591 -4.765114 1.366397 0.792600 10.829020 -8.475341 0.000000 -0.000000 0.000000 -5.804327 -3.123205 -1.175933 0.418067 -1.124389 10.431374 5.690846 -6.367684 -6.794723 0.000000 -0.000000 0.000000 -1.649044 0.567408 -1.521359 1.082862 -3.216542 4.822691 -0.646145 0.110814 -3.626996 1.401107 4.974152 1.676577 2.172230 3.903463 12.096899 -26.250402 3.751675 -1.209141 -56.306876 -5.416599 16.007647 1.888837 -19.395297 7.822566 -3.128937 -10.666729 2.677834 28.635216 0.275271 0.749079 55.923913 6.584990 15.653983 -6.137470 17.221709 1.012033 5.463332 7.536262 3.616606 
-0.277686 0.261512 0.997475 87.609920 -0.362766 88.513562 1.512685 2.110622 4.609609 -2.896062 -4.881502 1.365080 0.851836 10.864047 -8.430138 0.000000 -0.000000 0.000000 -5.800152 -3.128895 -1.183404 0.401342 -1.118311 10.427956 5.636008 -6.382936 -6.781207 0.000000 -0.000000 0.000000 -1.657756 0.595873 -1.518689 1.098949 -3.222662 4.879216 -0.640753 0.099888 -3.680627 1.351623 4.972946 1.736780 2.116180 3.925362 12.022211 -26.285369 3.746598 -1.224822 -56.329187 -5.438021 16.026362 1.927409 -19.317835 7.742354 -3.152291 -10.725289 2.680301 28.610463 0.279480 0.767704 55.943498 6.497988 15.662293 -6.180429 17.200143 0.989075 5.488519 7.610798 3.580695 
-0.277815 0.261485 0.997472 87.669944 -0.359337 88.520055 1.513184 2.058169 4.587473 -2.907152 -4.849198 1.373003 0.802448 10.825790 -8.448500 0.000000 -0.000000 0.000000 -5.803491 -3.150487 -1.196730 0.409071 -1.177711 10.449783 5.613223 -6.369540 -6.775113 0.000000 -0.000000 0.000000 -1.617188 0.611100 -1.444705 1.087977 -3.217908 4.854595 -0.635584 0.090910 -3.682139 1.306640 5.007416 1.722660 2.087495 3.929021 12.031437 -26.319610 3.670270 -1.164260 -56.319335 -5.468857 15.984535 1.962042 -19.281164 7.708809 -3.134359 -10.941855 2.646307 28.592833 0.251343 0.787362 55.949806 6.412826 15.618871 -6.244264 17.084108 1.071431 5.425045 7.653416 3.647480 
-0.278169 0.261549 0.997456 87.635256 -0.395699 88.532224 1.459451 2.017793 4.542351 -2.901509 -4.857369 1.376931 0.852781 10.887871 -8.407442 0.000000 -0.000000 0.000000 -5.838144 -3.066594 -1.226539 0.406293 -1.178700 10.420363 5.612998 -6.407536 -6.733640 0.000000 -0.000000 0.000000 -1.586165 0.626011 -1.380525 1.045645 -3.169340 4.866889 -0.654308 0.086935 -3.674339 1.264700 5.108734 1.721349 2.104430 3.988237 12.082076 -26.366411 3.605693 -1.066291 -56.254465 -5.589843 15.947787 1.998702 -19.324194 7.760386 -3.364464 -11.137147 2.716140 28.578075 0.292156 0.870783 55.980759 6.428915 15.576824 -6.339088 16.942888 0.953528 5.590912 7.743673 3.485390 
-0.278280 0.261524 0.997457 87.634380 -0.380652 88.532304 1.471555 2.081356 4.531412 -2.911314 -4.689639 1.397562 0.849565 10.882143 -8.417693 0.000000 -0.000000 0.000000 -5.821117 -3.074173 -1.256652 0.403872 -1.175640 10.467874 5.636755 -6.390670 -6.773189 0.000000 -0.000000 0.000000 -1.529198 0.616119 -1.276241 1.045098 -3.159600 4.838755 -0.657430 0.094857 -3.657199 1.204816 5.173100 1.608906 2.058872 4.101104 12.148912 -26.413670 3.583624 -1.105252 -56.242997 -5.563881 15.944355 2.026199 -19.512616 7.809243 -3.440642 -11.028816 2.736784 28.610364 0.243315 0.899620 55.859387 6.390280 15.531232 -6.312900 16.930604 1.022300 5.801380 7.733084 3.596645 
-0.278615 0.261558 0.997481 87.590028 -0.389198 88.540176 1.472426 1.993847 4.475951 -2.930399 -4.860136 1.451843 0.900190 10.943465 -8.392210 0.000000 -0.000000 0.000000 -5.833328 -3.035799 -1.310237 0.416604 -1.164640 10.489207 5.611342 -6.393141 -6.722919 0.000000 -0.000000 0.000000 -1.498891 0.638038 -1.230769 1.045948 -3.146471 4.892892 -0.668739 0.090093 -3.639944 1.144989 5.220380 1.640351 2.044734 4.208810 12.221898 -26.457628 3.546895 -1.129952 -56.242352 -5.624945 15.956715 2.037804 -19.515313 7.714236 -3.433649 -10.935760 2.667299 28.634348 0.244674 0.883063 55.782167 6.390236 15.537632 -6.271516 16.847201 1.058125 5.770509 7.698119 3.717506 
-0.278761 0.261449 0.997516 87.585553 -0.376860 88.502300 1.490443 2.030912 4.468096 -2.935859 -4.880049 1.543139 0.913410 10.922195 -8.466994 0.000000 -0.000000 0.000000 -5.804452 -3.045502 -1.237974 0.382163 -1.114503 10.410858 5.615278 -6.376940 -6.769743 0.000000 -0.000000 0.000000 -1.475274 0.624418 -1.160571 1.046598 -3.192757 5.027028 -0.673239 0.088766 -3.624095 1.098614 5.194898 1.718227 1.979646 4.281358 12.095830 -26.455811 3.469499 -1.102651 -56.279562 -5.670270 16.031836 1.997004 -19.650140 7.807420 -3.227396 -10.679820 2.735667 28.600715 0.279394 0.818330 55.809375 6.378317 15.519394 -6.257763 16.732775 0.914194 5.708927 7.607131 3.505352 
